<svg viewBox="0 0 40 40" xmlns="http://www.w3.org/2000/svg" id="Layer_1">
  <defs>
    <style>
      .cls-1{fill:none;stroke:#00ab84;stroke-linecap:round;stroke-miterlimit:10;stroke-width:1.27px}
    </style>
  </defs>
  <path d="M38.42 23.18a11 11 0 01-3 8A6.07 6.07 0 0129.49 33a7.44 7.44 0 01-4.75-3.88A11.81 11.81 0 0123.26 23a17.41 17.41 0 011.33-6.1 36.89 36.89 0 014.1-7.4c.56-.81 1.14-1.59 1.72-2.39a.49.49 0 01.88 0c.8 1.1 1.6 2.21 2.37 3.34a34.31 34.31 0 013.42 6.36 18.47 18.47 0 011.33 5.43c.03.3.01.62.01.94zM16.74 23.18a10.91 10.91 0 01-3 8A6.07 6.07 0 017.81 33a7.44 7.44 0 01-4.75-3.88A11.81 11.81 0 011.58 23a17.2 17.2 0 011.34-6.1A36.86 36.86 0 017 9.46c.56-.81 1.14-1.59 1.72-2.39a.5.5 0 01.89 0c.79 1.1 1.59 2.21 2.36 3.34a33.17 33.17 0 013.43 6.39 18.47 18.47 0 011.33 5.43c.03.31.01.63.01.95z" class="cls-1"></path>
</svg>