<svg xmlns="http://www.w3.org/2000/svg" fill="none" viewBox="0 0 48 48" height="48" width="48" aria-hidden="true">
<path stroke-miterlimit="10" stroke="#2D2A24" d="M42 8.63136V26.4986C42 38.2748 32.671 41.1173 32.671 41.1173C30.0316 41.8068 27.3008 42.0916 24.5739 41.9619C21.8086 42.1101 19.0371 41.825 16.3618 41.1173C15.9676 40.9874 6.91788 37.8687 7.03285 26.4986C7.13139 16.7528 7 8.63136 7 8.63136M42 8.63136C42 8.63136 38.3538 6 24.4589 6C15.0643 6 7 7.13701 7 8.63136M42 8.63136C42 9.88207 33.9521 10.9704 24.7382 10.9704C15.5242 10.9704 7 9.9308 7 8.63136"></path>
</svg>
