<svg xmlns="http://www.w3.org/2000/svg" fill="none" viewBox="0 0 48 48" height="48" width="48" aria-hidden="true">
<path fill="white" d="M42.964 32.814C42.964 32.4648 42.8729 32.2219 39.5334 31.7056L40.596 8.2016V7.79165L40.2165 7.63981C40.0343 7.63981 35.7385 6.01518 24.111 6H23.8226C12.1799 6 7.86893 7.68537 7.70196 7.7461L7.32247 7.89793L8.44575 31.6145C7.35783 31.8016 6.2973 32.1229 5.28841 32.5711L5 32.7381V38.4015C5 41.256 17.4624 42 24.0351 42C30.6079 42 42.3872 41.2864 42.9943 38.6141C43.0019 38.5434 43.0019 38.4722 42.9943 38.4015L42.964 32.814Z"></path>
<path fill="#2D2A24" d="M39.4732 32.8444L40.6575 33.0569C40.3387 33.148 39.9287 33.2543 39.458 33.3454L39.4732 32.8444Z"></path>
<path fill="#2D2A24" d="M23.9746 7.13877C28.8466 7.0152 33.7176 7.4225 38.5014 8.35345C36.862 9.00634 31.701 9.75033 24.2023 9.75033C19.2972 9.91774 14.3907 9.46369 9.59961 8.399C14.3287 7.43972 19.1508 7.01697 23.9746 7.13877V7.13877Z"></path>
<path fill="#2D2A24" d="M24.2021 10.8891C25.6138 10.8891 36.5278 10.8891 39.3816 9.08228L38.2583 33.558C33.5956 34.193 28.8923 34.4823 24.1869 34.4235C19.3096 34.4802 14.4345 34.1859 9.59936 33.5428L8.47607 9.08228C11.4816 10.8284 22.7448 10.8891 24.2021 10.8891Z"></path>
<path fill="#2D2A24" d="M8.44675 32.7228V33.3302C8.0215 33.2518 7.60081 33.1504 7.18652 33.0265L8.44675 32.7228Z"></path>
<path fill="#2D2A24" d="M41.841 38.4015C41.3249 39.2669 34.995 40.8156 24.0202 40.8156C12.7873 40.8156 6.39677 39.2062 6.12354 38.3407V33.6946C6.89827 34.0682 7.72056 34.3339 8.56744 34.4841V34.6511H9.1139C14.1447 35.3306 19.2171 35.6553 24.2934 35.6229C29.1831 35.6504 34.0683 35.3257 38.9113 34.6511H39.3971V34.4993C40.2367 34.3399 41.0528 34.0746 41.8258 33.7098L41.841 38.4015Z"></path>
</svg>
